<svg xmlns="http://www.w3.org/2000/svg" style="display:none">
<!-- FAS Stüdyo ikon sprite — TEK kaynak (skill §4). stroke 1.8, currentColor.
     Harici referans: <svg class="icon"><use href="/static/icons.svg#ic-X"/></svg>
     Eski ekranlar geçiş boyunca inline _icons.html'i kullanır; bu dosya yeni
     krom + migrate edilen ekranlar içindir. Emoji yerine geçen yeniler dahil. -->
<defs>
<symbol id="ic-plus" viewBox="0 0 24 24"><path d="M12 5v14M5 12h14" fill="none" stroke="currentColor" stroke-width="2" stroke-linecap="round"/></symbol>
<symbol id="ic-list" viewBox="0 0 24 24"><line x1="8" y1="6" x2="21" y2="6" stroke="currentColor" stroke-width="1.8" stroke-linecap="round"/><line x1="8" y1="12" x2="21" y2="12" stroke="currentColor" stroke-width="1.8" stroke-linecap="round"/><line x1="8" y1="18" x2="21" y2="18" stroke="currentColor" stroke-width="1.8" stroke-linecap="round"/><line x1="3" y1="6" x2="3.01" y2="6" stroke="currentColor" stroke-width="2.5" stroke-linecap="round"/><line x1="3" y1="12" x2="3.01" y2="12" stroke="currentColor" stroke-width="2.5" stroke-linecap="round"/><line x1="3" y1="18" x2="3.01" y2="18" stroke="currentColor" stroke-width="2.5" stroke-linecap="round"/></symbol>
<symbol id="ic-grid" viewBox="0 0 24 24"><rect x="3" y="3" width="7" height="7" rx="1" fill="none" stroke="currentColor" stroke-width="1.8"/><rect x="14" y="3" width="7" height="7" rx="1" fill="none" stroke="currentColor" stroke-width="1.8"/><rect x="14" y="14" width="7" height="7" rx="1" fill="none" stroke="currentColor" stroke-width="1.8"/><rect x="3" y="14" width="7" height="7" rx="1" fill="none" stroke="currentColor" stroke-width="1.8"/></symbol>
<symbol id="ic-pin" viewBox="0 0 24 24"><path d="M12 22v-8M5 9l7-7 7 7v3l-3 1H8l-3-1V9z" fill="none" stroke="currentColor" stroke-width="1.8" stroke-linecap="round" stroke-linejoin="round"/></symbol>
<symbol id="ic-bar-chart" viewBox="0 0 24 24"><line x1="12" y1="20" x2="12" y2="10" stroke="currentColor" stroke-width="1.8" stroke-linecap="round"/><line x1="18" y1="20" x2="18" y2="4" stroke="currentColor" stroke-width="1.8" stroke-linecap="round"/><line x1="6" y1="20" x2="6" y2="14" stroke="currentColor" stroke-width="1.8" stroke-linecap="round"/></symbol>
<symbol id="ic-spool" viewBox="0 0 24 24"><rect x="6" y="3" width="12" height="18" rx="1.5" fill="none" stroke="currentColor" stroke-width="1.8"/><path d="M6 7h12M6 17h12" stroke="currentColor" stroke-width="1.8" stroke-linecap="round"/><path d="M10 7l4 10M14 7l-4 10" stroke="currentColor" stroke-width="1.4" stroke-linecap="round"/></symbol>
<symbol id="ic-gear" viewBox="0 0 24 24"><circle cx="12" cy="12" r="3" fill="none" stroke="currentColor" stroke-width="1.8"/><path d="M19.4 15a1.65 1.65 0 0 0 .33 1.82l.06.06a2 2 0 0 1 0 2.83 2 2 0 0 1-2.83 0l-.06-.06a1.65 1.65 0 0 0-1.82-.33 1.65 1.65 0 0 0-1 1.51V21a2 2 0 0 1-4 0v-.09A1.65 1.65 0 0 0 9 19.4a1.65 1.65 0 0 0-1.82.33l-.06.06a2 2 0 0 1-2.83 0 2 2 0 0 1 0-2.83l.06-.06a1.65 1.65 0 0 0 .33-1.82 1.65 1.65 0 0 0-1.51-1H3a2 2 0 0 1 0-4h.09A1.65 1.65 0 0 0 4.6 9a1.65 1.65 0 0 0-.33-1.82l-.06-.06a2 2 0 0 1 0-2.83 2 2 0 0 1 2.83 0l.06.06a1.65 1.65 0 0 0 1.82.33H9a1.65 1.65 0 0 0 1-1.51V3a2 2 0 0 1 4 0v.09a1.65 1.65 0 0 0 1 1.51 1.65 1.65 0 0 0 1.82-.33l.06-.06a2 2 0 0 1 2.83 0 2 2 0 0 1 0 2.83l-.06.06a1.65 1.65 0 0 0-.33 1.82V9a1.65 1.65 0 0 0 1.51 1H21a2 2 0 0 1 0 4h-.09a1.65 1.65 0 0 0-1.51 1z" fill="none" stroke="currentColor" stroke-width="1.8" stroke-linejoin="round"/></symbol>
<symbol id="ic-log-out" viewBox="0 0 24 24"><path d="M9 21H5a2 2 0 0 1-2-2V5a2 2 0 0 1 2-2h4M16 17l5-5-5-5M21 12H9" fill="none" stroke="currentColor" stroke-width="1.8" stroke-linecap="round" stroke-linejoin="round"/></symbol>
<symbol id="ic-search" viewBox="0 0 24 24"><circle cx="11" cy="11" r="7" fill="none" stroke="currentColor" stroke-width="1.8"/><path d="M21 21l-4.35-4.35" fill="none" stroke="currentColor" stroke-width="1.8" stroke-linecap="round"/></symbol>
<symbol id="ic-pencil" viewBox="0 0 24 24"><path d="M12 20h9M16.5 3.5a2.121 2.121 0 0 1 3 3L7 19l-4 1 1-4L16.5 3.5z" fill="none" stroke="currentColor" stroke-width="1.8" stroke-linecap="round" stroke-linejoin="round"/></symbol>
<symbol id="ic-trash" viewBox="0 0 24 24"><path d="M3 6h18M19 6v14a2 2 0 0 1-2 2H7a2 2 0 0 1-2-2V6M8 6V4a2 2 0 0 1 2-2h4a2 2 0 0 1 2 2v2M10 11v6M14 11v6" fill="none" stroke="currentColor" stroke-width="1.8" stroke-linecap="round" stroke-linejoin="round"/></symbol>
<symbol id="ic-star" viewBox="0 0 24 24"><polygon points="12,2 14.59,8.82 22,9.27 16.5,14.14 18.18,21 12,17.77 5.82,21 7.5,14.14 2,9.27 9.41,8.82" fill="none" stroke="currentColor" stroke-width="1.8" stroke-linejoin="round"/></symbol>
<symbol id="ic-heart" viewBox="0 0 24 24"><path d="M20.8 4.6a5.5 5.5 0 0 0-7.8 0L12 5.6l-1-1a5.5 5.5 0 0 0-7.8 7.8l1 1L12 21l7.8-7.6 1-1a5.5 5.5 0 0 0 0-7.8z" fill="none" stroke="currentColor" stroke-width="1.8" stroke-linejoin="round"/></symbol>
<symbol id="ic-x" viewBox="0 0 24 24"><path d="M18 6L6 18M6 6l12 12" fill="none" stroke="currentColor" stroke-width="2" stroke-linecap="round"/></symbol>
<symbol id="ic-check" viewBox="0 0 24 24"><polyline points="20,6 9,17 4,12" fill="none" stroke="currentColor" stroke-width="2" stroke-linecap="round" stroke-linejoin="round"/></symbol>
<symbol id="ic-chevron-down" viewBox="0 0 24 24"><polyline points="6,9 12,15 18,9" fill="none" stroke="currentColor" stroke-width="1.8" stroke-linecap="round" stroke-linejoin="round"/></symbol>
<symbol id="ic-arrow-left" viewBox="0 0 24 24"><path d="M19 12H5M12 19l-7-7 7-7" fill="none" stroke="currentColor" stroke-width="1.8" stroke-linecap="round" stroke-linejoin="round"/></symbol>
<symbol id="ic-more" viewBox="0 0 24 24"><circle cx="5" cy="12" r="1.4" fill="currentColor"/><circle cx="12" cy="12" r="1.4" fill="currentColor"/><circle cx="19" cy="12" r="1.4" fill="currentColor"/></symbol>
<symbol id="ic-external-link" viewBox="0 0 24 24"><path d="M18 13v6a2 2 0 0 1-2 2H5a2 2 0 0 1-2-2V8a2 2 0 0 1 2-2h6M15 3h6v6M10 14L21 3" fill="none" stroke="currentColor" stroke-width="1.8" stroke-linecap="round" stroke-linejoin="round"/></symbol>
<symbol id="ic-image" viewBox="0 0 24 24"><rect x="3" y="3" width="18" height="18" rx="2" fill="none" stroke="currentColor" stroke-width="1.8"/><circle cx="9" cy="9" r="2" fill="none" stroke="currentColor" stroke-width="1.8"/><path d="M21 15l-5-5L5 21" fill="none" stroke="currentColor" stroke-width="1.8" stroke-linecap="round" stroke-linejoin="round"/></symbol>
<symbol id="ic-eye" viewBox="0 0 24 24"><path d="M1.5 12S5 5 12 5s10.5 7 10.5 7-3.5 7-10.5 7S1.5 12 1.5 12z" fill="none" stroke="currentColor" stroke-width="1.8" stroke-linejoin="round"/><circle cx="12" cy="12" r="3" fill="none" stroke="currentColor" stroke-width="1.8"/></symbol>
<symbol id="ic-file" viewBox="0 0 24 24"><path d="M14 2H6a2 2 0 0 0-2 2v16a2 2 0 0 0 2 2h12a2 2 0 0 0 2-2V8z" fill="none" stroke="currentColor" stroke-width="1.8" stroke-linecap="round" stroke-linejoin="round"/><polyline points="14 2 14 8 20 8" fill="none" stroke="currentColor" stroke-width="1.8" stroke-linecap="round" stroke-linejoin="round"/><line x1="9" y1="13" x2="15" y2="13" stroke="currentColor" stroke-width="1.5" stroke-linecap="round"/><line x1="9" y1="17" x2="15" y2="17" stroke="currentColor" stroke-width="1.5" stroke-linecap="round"/></symbol>
<symbol id="ic-download" viewBox="0 0 24 24"><path d="M21 15v4a2 2 0 0 1-2 2H5a2 2 0 0 1-2-2v-4" fill="none" stroke="currentColor" stroke-width="1.8" stroke-linecap="round" stroke-linejoin="round"/><polyline points="7 10 12 15 17 10" fill="none" stroke="currentColor" stroke-width="1.8" stroke-linecap="round" stroke-linejoin="round"/><line x1="12" y1="15" x2="12" y2="3" stroke="currentColor" stroke-width="1.8" stroke-linecap="round"/></symbol>
<symbol id="ic-refresh" viewBox="0 0 24 24"><polyline points="23 4 23 10 17 10" fill="none" stroke="currentColor" stroke-width="1.8" stroke-linecap="round" stroke-linejoin="round"/><polyline points="1 20 1 14 7 14" fill="none" stroke="currentColor" stroke-width="1.8" stroke-linecap="round" stroke-linejoin="round"/><path d="M3.51 9a9 9 0 0 1 14.85-3.36L23 10M1 14l4.64 4.36A9 9 0 0 0 20.49 15" fill="none" stroke="currentColor" stroke-width="1.8" stroke-linecap="round" stroke-linejoin="round"/></symbol>
<symbol id="ic-target" viewBox="0 0 24 24"><circle cx="12" cy="12" r="10" fill="none" stroke="currentColor" stroke-width="1.8"/><circle cx="12" cy="12" r="6" fill="none" stroke="currentColor" stroke-width="1.8"/><circle cx="12" cy="12" r="2" fill="currentColor"/></symbol>
<symbol id="ic-tag" viewBox="0 0 24 24"><path d="M20.59 13.41l-7.17 7.17a2 2 0 0 1-2.83 0L2 12V2h10l8.59 8.59a2 2 0 0 1 0 2.82z" fill="none" stroke="currentColor" stroke-width="1.8" stroke-linejoin="round"/><circle cx="7" cy="7" r="1.3" fill="currentColor"/></symbol>
<symbol id="ic-palette" viewBox="0 0 24 24"><path d="M12 2a10 10 0 0 0 0 20c1.1 0 2-.9 2-2 0-.5-.2-1-.5-1.3-.3-.4-.5-.8-.5-1.2 0-1.1.9-2 2-2h2.4A4.6 4.6 0 0 0 22 10.4 10 10 0 0 0 12 2z" fill="none" stroke="currentColor" stroke-width="1.8" stroke-linejoin="round"/><circle cx="7.5" cy="11" r="1.2" fill="currentColor"/><circle cx="10.5" cy="7" r="1.2" fill="currentColor"/><circle cx="15" cy="7.5" r="1.2" fill="currentColor"/></symbol>
<!-- Emoji yerine geçen yeniler (Faz 7): ⚡ AI Doldur · 🏭 Ürün Oluştur · 🔮 Linkten Doldur · 📋 Kartela · ⏳ Yükleniyor -->
<symbol id="ic-zap" viewBox="0 0 24 24"><polygon points="13 2 3 14 12 14 11 22 21 10 12 10 13 2" fill="none" stroke="currentColor" stroke-width="1.8" stroke-linejoin="round"/></symbol>
<symbol id="ic-factory" viewBox="0 0 24 24"><path d="M3 21V11l5 3V11l5 3V7l6 3.5V21H3z" fill="none" stroke="currentColor" stroke-width="1.8" stroke-linejoin="round"/><line x1="7.5" y1="21" x2="7.5" y2="17.5" stroke="currentColor" stroke-width="1.4" stroke-linecap="round"/><line x1="16.5" y1="21" x2="16.5" y2="17.5" stroke="currentColor" stroke-width="1.4" stroke-linecap="round"/></symbol>
<symbol id="ic-wand" viewBox="0 0 24 24"><path d="M5 21L16 10" fill="none" stroke="currentColor" stroke-width="1.8" stroke-linecap="round"/><path d="M18 3l1.2 2.8L22 7l-2.8 1.2L18 11l-1.2-2.8L14 7l2.8-1.2z" fill="currentColor"/><circle cx="7" cy="6" r="1" fill="currentColor"/><circle cx="12" cy="17" r="1" fill="currentColor"/></symbol>
<symbol id="ic-clipboard" viewBox="0 0 24 24"><rect x="5" y="4" width="14" height="17" rx="2" fill="none" stroke="currentColor" stroke-width="1.8"/><rect x="9" y="2.5" width="6" height="3.5" rx="1" fill="none" stroke="currentColor" stroke-width="1.8"/><line x1="9" y1="12" x2="15" y2="12" stroke="currentColor" stroke-width="1.5" stroke-linecap="round"/><line x1="9" y1="16" x2="13" y2="16" stroke="currentColor" stroke-width="1.5" stroke-linecap="round"/></symbol>
<symbol id="ic-loader" viewBox="0 0 24 24"><path d="M12 3a9 9 0 1 0 9 9" fill="none" stroke="currentColor" stroke-width="1.8" stroke-linecap="round"/></symbol>
</defs>
</svg>
